<svg width="1067" height="1030" viewBox="0 0 1067 1030" fill="none" xmlns="http://www.w3.org/2000/svg">
<path d="M583.262 951.549C519.074 921.014 410.67 843.884 490.56 779.649C590.424 699.355 740.022 863.456 812.264 828.393C879.187 795.911 893.86 716.789 811.057 533.617C744.814 387.079 672.635 292.122 644.825 262.961" stroke="#808080" stroke-opacity="0.15"/>
<path d="M331.262 689.588C267.074 659.052 158.67 581.922 238.56 517.687C338.424 437.394 488.022 601.495 560.264 566.431C627.187 533.95 641.86 454.828 559.057 271.655C492.814 125.117 420.635 30.161 392.825 1.00001" stroke="#808080" stroke-opacity="0.15"/>
<path d="M562.262 929.72C498.074 899.184 389.67 822.054 469.56 757.819C569.424 677.526 719.022 841.627 791.264 806.563C858.187 774.081 872.86 694.959 790.057 511.787C723.814 365.249 651.635 270.293 623.825 241.132" stroke="#808080" stroke-opacity="0.15"/>
<path d="M541.262 907.889C477.074 877.353 368.67 800.223 448.56 735.988C548.423 655.695 698.022 819.796 770.264 784.732C837.187 752.251 851.86 673.129 769.057 489.956C702.814 343.418 630.634 248.462 602.825 219.301" stroke="#808080" stroke-opacity="0.15"/>
<path d="M520.262 886.059C456.074 855.524 347.67 778.394 427.561 714.159C527.424 633.865 677.022 797.966 749.264 762.903C816.187 730.421 830.86 651.299 748.057 468.127C681.814 321.589 609.635 226.632 581.825 197.471" stroke="#808080" stroke-opacity="0.15"/>
<path d="M499.262 864.229C435.074 833.693 326.67 756.563 406.56 692.328C506.424 612.035 656.022 776.136 728.264 741.072C795.187 708.59 809.86 629.469 727.057 446.296C660.814 299.758 588.635 204.802 560.825 175.641" stroke="#808080" stroke-opacity="0.15"/>
<path d="M478.262 842.399C414.074 811.863 305.67 734.733 385.56 670.498C485.423 590.205 635.022 754.306 707.264 719.242C774.187 686.76 788.86 607.639 706.057 424.466C639.814 277.928 567.634 182.972 539.825 153.811" stroke="#808080" stroke-opacity="0.15"/>
<path d="M457.262 820.569C393.074 790.033 284.67 712.903 364.561 648.669C464.424 568.375 614.022 732.476 686.264 697.412C753.187 664.931 767.861 585.809 685.057 402.636C618.814 256.099 546.635 161.142 518.825 131.981" stroke="#808080" stroke-opacity="0.15"/>
<path d="M436.262 798.738C372.074 768.203 263.67 691.073 343.56 626.838C443.424 546.544 593.022 710.645 665.264 675.582C732.187 643.1 746.86 563.978 664.057 380.806C597.814 234.268 525.635 139.311 497.825 110.15" stroke="#808080" stroke-opacity="0.15"/>
<path d="M415.262 776.909C351.074 746.373 242.67 669.243 322.56 605.008C422.424 524.715 572.022 688.816 644.264 653.752C711.187 621.27 725.86 542.149 643.057 358.976C576.814 212.438 504.635 117.482 476.825 88.3209" stroke="#808080" stroke-opacity="0.15"/>
<path d="M394.262 755.079C330.074 724.543 221.67 647.413 301.56 583.178C401.424 502.885 551.022 666.986 623.264 631.922C690.187 599.441 704.86 520.319 622.057 337.146C555.814 190.608 483.635 95.652 455.825 66.491" stroke="#808080" stroke-opacity="0.15"/>
<path d="M373.262 733.248C309.074 702.713 200.67 625.583 280.56 561.348C380.424 481.054 530.022 645.155 602.264 610.092C669.187 577.61 683.86 498.488 601.057 315.316C534.814 168.778 462.635 73.8214 434.825 44.6605" stroke="#808080" stroke-opacity="0.15"/>
<path d="M352.262 711.419C288.074 680.883 179.67 603.753 259.561 539.518C359.424 459.225 509.022 623.326 581.264 588.262C648.187 555.78 662.86 476.658 580.057 293.486C513.814 146.948 441.635 51.9916 413.825 22.8306" stroke="#808080" stroke-opacity="0.15"/>
</svg>
