<svg width="42" height="42" viewBox="0 0 42 42" fill="none" xmlns="http://www.w3.org/2000/svg">
<path fill-rule="evenodd" clip-rule="evenodd" d="M26.3302 31.1625C26.9485 29.6353 28.4283 28.6329 30.076 28.6252V28.552C31.1563 28.5472 32.1941 28.9729 32.9598 29.7352C33.7254 30.4974 34.1559 31.5333 34.1559 32.6136C34.1855 34.2611 33.217 35.7632 31.7041 36.416C30.1913 37.0688 28.4339 36.7429 27.2557 35.5911C26.0775 34.4393 25.7118 32.6898 26.3302 31.1625ZM31.3932 32.6868C31.3932 31.9593 30.8035 31.3696 30.076 31.3696C29.3526 31.3794 28.7685 31.9634 28.7587 32.6868C28.7587 33.4143 29.3485 34.0041 30.076 34.0041C30.8035 34.0041 31.3932 33.4143 31.3932 32.6868Z" fill="#6856F0"/>
<path fill-rule="evenodd" clip-rule="evenodd" d="M7.31641 32.6136C7.31641 30.3705 9.13484 28.552 11.378 28.552C12.4567 28.5472 13.4926 28.9735 14.2554 29.7363C15.0181 30.499 15.4445 31.5349 15.4396 32.6136C15.4396 34.8568 13.6212 36.6752 11.378 36.6752C9.13484 36.6752 7.31641 34.8568 7.31641 32.6136ZM12.6004 32.2011C12.4016 31.6998 11.9173 31.3704 11.378 31.3696V31.2964C10.6505 31.2964 10.0607 31.8861 10.0607 32.6137C10.0308 33.1521 10.332 33.6544 10.8211 33.8816C11.3102 34.1087 11.8884 34.0148 12.2804 33.6445C12.6725 33.2742 12.7993 32.7024 12.6004 32.2011Z" fill="#6856F0"/>
<path fill-rule="evenodd" clip-rule="evenodd" d="M39.1697 16.9893L37.2487 15.0683C36.5882 14.403 35.6975 14.0167 34.7605 13.9889H26.0152V11.5556C26.0152 9.53472 24.377 7.89648 22.3562 7.89648H7.31729C5.29643 7.89648 3.6582 9.53472 3.6582 11.5556V15.4525H18.2946C18.6682 15.4476 19.0285 15.5914 19.2961 15.8521C19.5637 16.1129 19.7168 16.4693 19.7216 16.843C19.712 17.2118 19.5563 17.5617 19.2886 17.8156C19.021 18.0695 18.6634 18.2067 18.2946 18.1968H3.6582V33.0893H5.96343C5.9539 32.9553 5.9539 32.8208 5.96343 32.6868C5.6466 30.5634 6.59693 28.4502 8.39574 27.2782C10.1946 26.1062 12.5116 26.0906 14.326 27.2382C16.1404 28.3859 17.1191 30.4861 16.8309 32.6136C16.8405 32.7476 16.8405 32.8821 16.8309 33.0161H24.6797C24.6701 32.8821 24.6701 32.7476 24.6797 32.6136C24.6797 30.6527 25.7258 28.8408 27.424 27.8603C29.1222 26.8799 31.2144 26.8799 32.9126 27.8603C34.6108 28.8408 35.657 30.6527 35.657 32.6136C35.6665 32.7476 35.6665 32.8821 35.657 33.0161H36.59C38.6109 33.0161 40.2491 31.3779 40.2491 29.3571V19.569C40.245 18.6001 39.8568 17.6724 39.1697 16.9893ZM18.2946 23.6855H9.14684C8.3961 23.6855 7.78469 23.0823 7.77468 22.3316C7.77461 21.5708 8.38607 20.9512 9.14684 20.9411H18.2946C19.0553 20.9512 19.6668 21.5708 19.6667 22.3316C19.6567 23.0823 19.0453 23.6855 18.2946 23.6855ZM28.229 21.6364H37.3767C38.1345 21.6364 38.7489 21.022 38.7489 20.2642C38.7489 19.5064 38.1345 18.8921 37.3767 18.8921H28.229C27.4712 18.8921 26.8568 19.5064 26.8568 20.2642C26.8568 21.022 27.4712 21.6364 28.229 21.6364Z" fill="#6856F0"/>
<path d="M3.65827 15.4525V18.1968H3.07281C2.70575 18.2067 2.35006 18.0689 2.08531 17.8145C1.82055 17.5601 1.66883 17.2101 1.66406 16.843C1.66403 16.471 1.81303 16.1145 2.07776 15.8532C2.3425 15.5919 2.70088 15.4476 3.07281 15.4525H3.65827Z" fill="#6856F0"/>
</svg>
