<svg width="42" height="42" viewBox="0 0 42 42" fill="none" xmlns="http://www.w3.org/2000/svg">
<path d="M23.0601 18.9098H24.0601C24.1892 18.9098 24.3128 18.8579 24.4031 18.7657C24.4934 18.6735 24.5428 18.5488 24.5401 18.4198V16.8198C24.541 16.5696 24.3495 16.3606 24.1001 16.3398C24.1001 16.3398 23.3901 16.2798 22.5201 16.2798C20.3801 16.2798 19.2001 17.5498 19.2001 19.8498V21.6198H17.2301C17.102 21.617 16.9783 21.6667 16.8877 21.7573C16.797 21.848 16.7474 21.9717 16.7501 22.0998V23.5598C16.7474 23.6879 16.797 23.8116 16.8877 23.9022C16.9783 23.9929 17.102 24.0425 17.2301 24.0398H19.1701V29.6998H22.0901V24.0398H23.8501C24.0918 24.0373 24.2956 23.859 24.3301 23.6198L24.5101 22.1598C24.5284 22.0216 24.4845 21.8824 24.3901 21.7798C24.2985 21.6774 24.1675 21.6191 24.0301 21.6198H22.0901V19.9098C22.0899 19.369 22.5196 18.926 23.0601 18.9098Z" fill="#E0E0E0"/>
<path fill-rule="evenodd" clip-rule="evenodd" d="M11 20.91C11 15.4369 15.4369 11 20.91 11C23.5383 11 26.0589 12.0441 27.9174 13.9026C29.7759 15.7611 30.82 18.2817 30.82 20.91C30.82 26.3831 26.3831 30.82 20.91 30.82C15.4369 30.82 11 26.3831 11 20.91ZM29.32 20.91C29.32 16.2653 25.5547 12.5 20.91 12.5C16.2698 12.511 12.511 16.2698 12.5 20.91C12.5 25.5547 16.2653 29.32 20.91 29.32C25.5547 29.32 29.32 25.5547 29.32 20.91Z" fill="#E0E0E0"/>
<rect x="0.5" y="0.5" width="41" height="41" rx="20.5" stroke="#E0E0E0"/>
</svg>
