<svg width="32" height="32" viewBox="0 0 32 32" fill="none" xmlns="http://www.w3.org/2000/svg">
<path fill-rule="evenodd" clip-rule="evenodd" d="M20.2939 1.6556L29.0476 8.12139C30.7347 9.3423 31.7385 11.2945 31.75 13.3769V25.0816C31.6416 28.8348 28.5241 31.7968 24.7703 31.7132H7.24632C3.48609 31.8061 0.358408 28.8415 0.25 25.0816V13.3769C0.261538 11.2945 1.26533 9.3423 2.95237 8.12139L11.7061 1.6556C14.2619 -0.218532 17.7381 -0.218532 20.2939 1.6556ZM8.53948 24.7003H23.4605C24.1473 24.7003 24.704 24.1436 24.704 23.4569C24.704 22.7702 24.1473 22.2135 23.4605 22.2135H8.53948C7.85275 22.2135 7.29605 22.7702 7.29605 23.4569C7.29605 24.1436 7.85275 24.7003 8.53948 24.7003Z" fill="#6856F0"/>
</svg>
