<svg width="42" height="42" viewBox="0 0 42 42" fill="none" xmlns="http://www.w3.org/2000/svg">
<path fill-rule="evenodd" clip-rule="evenodd" d="M17 11H24.7C28.0137 11 30.7 13.6863 30.7 17V24.7C30.7 28.0137 28.0137 30.7 24.7 30.7H17C13.6863 30.7 11 28.0137 11 24.7V17C11 13.6863 13.6863 11 17 11ZM29.2 17C29.1945 14.517 27.183 12.5055 24.7 12.5H17C14.517 12.5055 12.5055 14.517 12.5 17V24.7C12.5055 27.183 14.517 29.1945 17 29.2H24.7C27.183 29.1945 29.1945 27.183 29.2 24.7V17Z" fill="#E0E0E0"/>
<path fill-rule="evenodd" clip-rule="evenodd" d="M16.5508 20.8498C16.5563 18.4773 18.4782 16.5553 20.8508 16.5498C23.2233 16.5553 25.1453 18.4773 25.1508 20.8498C25.1508 23.2246 23.2256 25.1498 20.8508 25.1498C18.476 25.1498 16.5508 23.2246 16.5508 20.8498ZM23.6508 20.8498C23.6508 19.3034 22.3972 18.0498 20.8508 18.0498C19.3067 18.0553 18.0563 19.3057 18.0508 20.8498C18.0508 22.3962 19.3044 23.6498 20.8508 23.6498C22.3972 23.6498 23.6508 22.3962 23.6508 20.8498Z" fill="#E0E0E0"/>
<path d="M24.5098 15.5049C24.5098 14.9057 24.9955 14.4199 25.5948 14.4199C26.194 14.4199 26.6798 14.9057 26.6798 15.5049C26.6798 16.1042 26.194 16.5899 25.5948 16.5899C24.9955 16.5899 24.5098 16.1042 24.5098 15.5049Z" fill="#E0E0E0"/>
<rect x="0.5" y="0.5" width="41" height="41" rx="20.5" stroke="#E0E0E0"/>
</svg>
