<svg width="35" height="38" viewBox="0 0 35 38" fill="none" xmlns="http://www.w3.org/2000/svg">
<path fill-rule="evenodd" clip-rule="evenodd" d="M31.2817 6.55498L21.0442 0.867476C19.4082 -0.0258123 17.4302 -0.0258123 15.7942 0.867476L5.55673 6.55498C3.84699 7.51261 2.78915 9.32031 2.79173 11.28V22.305C2.7903 23.1367 2.982 23.9574 3.35173 24.7025L3.59673 25.0875C3.01892 26.1318 2.71772 27.3065 2.72173 28.5C2.72812 29.6855 3.04164 30.8492 3.63173 31.8775L1.04173 34.625C0.764951 34.9008 0.609375 35.2755 0.609375 35.6662C0.609375 36.057 0.764951 36.4317 1.04173 36.7075C1.31946 36.9745 1.689 37.1248 2.07423 37.1275C2.48095 37.1284 2.86894 36.9566 3.14173 36.655L5.60923 34.1C6.7221 34.896 8.05596 35.3243 9.42423 35.325C11.6875 35.3123 13.7924 34.1612 15.0242 32.2625L15.7942 32.7C17.426 33.6098 19.4125 33.6098 21.0442 32.7L31.2817 27.0125C32.9941 26.0662 34.0542 24.2614 34.0467 22.305V11.28C34.0493 9.32031 32.9915 7.51261 31.2817 6.55498ZM12.3817 30.7925C11.7087 31.7626 10.605 32.3438 9.42423 32.35C7.35438 32.2834 5.71953 30.5707 5.74923 28.5C5.74258 28.0578 5.81977 27.6184 5.97673 27.205C6.46087 25.6758 7.87286 24.631 9.47673 24.615C11.5563 24.691 13.1913 26.4194 13.1517 28.5C13.1557 29.3283 12.8849 30.1345 12.3817 30.7925ZM20.5367 16.25L28.1317 11.9625H28.2017C28.818 11.6018 29.0329 10.8146 28.6853 10.1908C28.3377 9.56703 27.5552 9.3356 26.9242 9.66998L19.3292 13.9225C18.7878 14.2351 18.1207 14.2351 17.5792 13.9225L9.91423 9.66998C9.50384 9.42981 8.99564 9.43039 8.58579 9.6715C8.17595 9.91262 7.92857 10.3565 7.93914 10.8319C7.94971 11.3073 8.21658 11.7398 8.63673 11.9625L16.2492 16.25C16.5192 16.398 16.8075 16.5098 17.1067 16.5825V26.5575C17.1067 27.2823 17.6944 27.87 18.4192 27.87C19.1441 27.87 19.7317 27.2823 19.7317 26.5575V16.5825C20.0129 16.5056 20.2833 16.3939 20.5367 16.25Z" fill="#6856F0"/>
</svg>
