<svg width="30" height="38" viewBox="0 0 30 38" fill="none" xmlns="http://www.w3.org/2000/svg">
<path fill-rule="evenodd" clip-rule="evenodd" d="M19.4795 0.817505H10.5195C4.72054 0.817505 0.0195312 5.51852 0.0195312 11.3175V26.6825C0.0195312 32.4815 4.72054 37.1825 10.5195 37.1825H19.4795C25.2785 37.1825 29.9795 32.4815 29.9795 26.6825V11.3175C29.9795 5.51852 25.2785 0.817505 19.4795 0.817505ZM12.1295 24.495C13.0098 24.0121 13.9956 23.7536 14.9995 23.7425C16.0035 23.7536 16.9893 24.0121 17.8695 24.495C15.961 24.6875 14.038 24.6875 12.1295 24.495ZM23.7495 23.2L26.777 22.2025V11.3175C26.777 9.38209 26.0082 7.52594 24.6396 6.15739C23.2711 4.78885 21.4149 4.02 19.4795 4.02H10.5195C6.49607 4.02965 3.23952 7.29403 3.23953 11.3175V22.2025L6.19703 23.2C6.87953 23.445 7.59703 23.6375 8.29703 23.8125C10.0258 21.9418 12.4524 20.871 14.9995 20.855C17.5284 20.8855 19.9333 21.955 21.6495 23.8125C22.3495 23.6375 23.0495 23.445 23.7495 23.2Z" fill="#6856F0"/>
</svg>
